PathFileType	4	(X/Y/Z)	\\Move.snu.ac.kr\motion\Animal\091204_091205_Bird\091205_bird\Project 2\Capture day 2\Session 1\pigeon_024.trc
DataRate	CameraRate	NumFrames	NumMarkers	Units	OrigDataRate	OrigDataStartFrame	OrigNumFrames
240.0	240.0	10	14	mm	240.0	1	1929
Frame#	Time	14MarkersBird:Head			14MarkersBird:C_back			14MarkersBird:Spine			14MarkersBird:L-shoulder			14MarkersBird:L-elbow			14MarkersBird:L-wrist			14MarkersBird:L-hand			14MarkersBird:R-shoulder			14MarkersBird:R-elbow			14MarkersBird:R-Wrist			14MarkersBird:R-hand			14MarkersBird:C_Tail			14MarkersBird:L-Tale			14MarkersBird:R-Tale			
		X1	Y1	Z1	X2	Y2	Z2	X3	Y3	Z3	X4	Y4	Z4	X5	Y5	Z5	X6	Y6	Z6	X7	Y7	Z7	X8	Y8	Z8	X9	Y9	Z9	X10	Y10	Z10	X11	Y11	Z11	X12	Y12	Z12	X13	Y13	Z13	X14	Y14	Z14	

887	3.692	437.94107	1199.87878	-2274.31519	454.55276	1171.86951	-2327.77637	472.76044	1146.78418	-2371.25220	472.46323	1177.53577	-2289.76025	492.53104	1189.06152	-2314.58569	517.69495	1196.90894	-2274.56812	546.41339	1208.61768	-2270.75610	423.41757	1173.70972	-2304.72607	412.83282	1179.63220	-2332.54468	371.38049	1182.76440	-2317.21484	332.08078	1191.09338	-2318.67749	498.99689	1058.85388	-2455.52051	561.93439	1081.30688	-2388.36182	394.37482	1079.75415	-2425.41162	
888	3.696	439.42651	1208.15833	-2274.01147	456.20178	1180.05847	-2329.22119	474.61591	1153.07288	-2371.85815	475.00116	1187.26538	-2290.15210	498.40652	1192.48181	-2311.57300	519.79913	1196.13831	-2269.31152	546.92181	1202.39417	-2256.46899	424.35922	1181.95569	-2305.54321	409.49185	1182.94958	-2331.90942	370.38876	1181.83789	-2312.41724	330.88446	1181.91003	-2309.00269	499.17377	1063.29272	-2453.94238	563.22192	1086.85974	-2385.51367	393.13950	1087.32825	-2423.44019	
889	3.700	440.70145	1216.27478	-2273.51685	458.47226	1188.41150	-2331.00269	476.34375	1158.75159	-2372.28149	476.41550	1193.18311	-2290.49487	502.37564	1196.08618	-2308.48535	517.97540	1195.57703	-2264.23340	540.40131	1197.14832	-2244.49170	425.40430	1190.08948	-2306.60693	408.02850	1186.14331	-2331.06592	372.46542	1179.90234	-2307.37573	334.44901	1172.76477	-2298.11255	499.40567	1066.12109	-2451.18140	564.02240	1091.48230	-2381.96045	392.70709	1094.05481	-2421.91699	
890	3.704	441.51727	1224.01880	-2273.02588	461.12686	1196.25391	-2332.55469	478.16779	1164.28906	-2372.42261	476.16849	1200.54932	-2291.99438	503.04077	1199.28992	-2305.67969	510.17865	1199.38232	-2260.75488	526.97046	1197.25757	-2238.50732	427.24713	1198.94873	-2308.43408	409.52478	1190.42944	-2330.39136	379.60144	1182.16968	-2301.90918	345.59286	1170.11609	-2288.07788	499.68134	1067.06714	-2445.67969	563.78296	1094.96924	-2377.73877	394.05283	1098.59631	-2420.78931	
891	3.708	442.30612	1231.63977	-2272.62744	463.65164	1203.90063	-2333.84912	480.02237	1169.88110	-2372.45923	476.35205	1208.19995	-2293.06909	503.83911	1202.93054	-2303.06787	503.31903	1203.87073	-2257.93359	514.66284	1198.30872	-2233.29053	428.95245	1207.52234	-2310.10913	410.95636	1194.99268	-2329.97827	385.84378	1185.85193	-2297.43848	356.37344	1169.43079	-2278.94043	499.93161	1068.29968	-2440.12524	563.44971	1098.39819	-2373.47925	395.52112	1102.83960	-2419.49927	
892	3.713	442.92554	1239.01697	-2272.35010	466.02579	1211.14661	-2334.67529	481.91891	1175.55005	-2372.25952	477.05969	1216.58679	-2293.67114	504.20908	1207.17236	-2300.94312	496.95056	1210.16711	-2256.49756	502.85883	1201.82007	-2230.57666	430.57465	1215.78870	-2311.68872	412.83408	1200.22107	-2330.14502	391.96201	1192.20789	-2294.62085	367.70261	1172.96216	-2271.64209	500.14267	1069.70898	-2434.09937	562.77069	1101.56750	-2369.02441	397.59976	1106.35278	-2418.12378	
893	3.717	443.33063	1246.14124	-2272.19458	468.11987	1217.94556	-2334.91333	483.81598	1181.37439	-2371.75439	478.21591	1225.46167	-2293.83960	504.37454	1212.09888	-2299.63208	491.99081	1218.24280	-2256.69165	492.66092	1207.96143	-2230.61011	431.99258	1223.65625	-2313.07764	415.00842	1206.28613	-2331.25195	397.60010	1201.36743	-2294.07056	378.39444	1181.10315	-2267.06396	500.33249	1071.62561	-2427.91968	561.78442	1104.66223	-2364.40698	400.34207	1109.40417	-2416.76050	
894	3.721	443.52798	1253.04626	-2272.12451	469.79453	1224.37769	-2334.57544	485.65668	1187.43628	-2370.95874	479.29855	1233.98975	-2293.81787	504.75815	1217.64783	-2299.44727	489.44333	1227.50818	-2258.38477	485.51218	1216.25403	-2232.81738	433.08154	1231.08081	-2314.14429	417.28082	1213.26074	-2333.56714	402.10175	1212.94653	-2295.98462	386.65845	1193.12024	-2265.83447	500.60486	1074.35876	-2422.06714	560.71149	1108.05750	-2359.72119	403.55048	1112.52832	-2415.55103	
895	3.725	443.53812	1259.76343	-2272.07764	470.97592	1230.58215	-2333.78247	487.38025	1193.73560	-2369.94336	479.91940	1241.56433	-2293.79517	505.53928	1223.70142	-2300.57935	489.58447	1237.35046	-2261.24561	482.31152	1226.00525	-2236.32861	433.84329	1238.10071	-2314.79248	419.79059	1221.16602	-2337.08301	405.25729	1226.30127	-2300.10278	391.29745	1207.79785	-2268.20703	501.13959	1077.92554	-2416.76367	559.85358	1112.11682	-2355.01855	406.93939	1116.13196	-2414.60205	
896	3.729	443.38107	1266.29602	-2271.99878	471.69046	1236.68079	-2332.68115	488.91983	1200.14844	-2368.76099	480.12796	1248.12878	-2293.75073	506.55176	1230.22363	-2302.98877	491.99438	1247.42456	-2264.95239	483.38333	1236.49402	-2240.29517	434.35129	1244.77087	-2314.97363	422.98270	1229.92957	-2341.38818	407.37097	1240.62952	-2305.98389	392.15558	1223.81262	-2274.16064	502.10635	1082.11060	-2411.90796	559.47742	1117.05774	-2350.28711	410.20706	1120.34460	-2413.88501	
